<?xml version="1.0"?>
<svg width="720" height="200" xmlns="http://www.w3.org/2000/svg" xmlns:svg="http://www.w3.org/2000/svg" stroke="null" style="vector-effect: non-scaling-stroke;">
 <g stroke="null">
  <rect fill="#ff7a1c" height="80" width="220" y="0" x="0" />
  <text font-family="Sans-serif" font-size="20px" y="45" x="50" fill="#ffffff">Шифротекст</text>
  <text font-style="italic" font-family="Serif" font-size="20px" x="199" y="75" fill="#fffa00">C</text>

  <rect fill="#666666" height="80" width="220" y="0" x="250" />
  <text font-family="Sans-serif" font-size="20px" y="45" x="268" fill="#ffffff">Расшифровывание</text>
  <text font-style="italic" font-family="Serif" font-size="20px" x="449" y="75" fill="#fffa00">D</text>

  <rect fill="#15631e" height="80" width="220" y="0" x="500" />
  <text font-family="Sans-serif" font-size="20px" y="45" x="585" fill="#ffffff">Текст</text>
  <text font-style="italic" font-family="Serif" font-size="20px" x="699" y="75" fill="#fffa00">T</text>

  <rect fill="#666666" height="80" width="220" y="110" x="250" />
  <text font-family="Sans-serif" font-size="20px" y="155" x="338" fill="#ffffff">Ключ</text>
  <text font-style="italic" font-family="Serif" font-size="20px" x="449" y="185" fill="#fffa00">k</text>

  <path d="m210,30l30,0l0,-10l20,20l-20,20l0,-10l-30,0z" fill="#1c6fff" stroke="#000000" stroke-width="1"/>

  <path d="m460,30l30,0l0,-10l20,20l-20,20l0,-10l-30,0z" fill="#1c6fff" stroke="#000000" stroke-width="1"/>

  <path d="m350,120l0,-30l-10,0l20,-20l20,20l-10,0l0,30z" fill="#09a089" stroke="#000000" stroke-width="1"/>
 </g>
</svg>
