<?xml version="1.0"?>
<svg width="610" height="160" xmlns="http://www.w3.org/2000/svg" xmlns:svg="http://www.w3.org/2000/svg" stroke="null" style="vector-effect: non-scaling-stroke;">
 <g stroke="null">
  <!-- <rect fill="#15631e" height="80" width="220" y="0" x="0" /> -->
  <rect fill="#15631e" height="30" width="30" y="25" x="30" />
  <rect fill="#15631e" height="30" width="30" y="25" x="70" />
  <rect fill="#15631e" height="30" width="30" y="25" x="110" />
  <rect fill="#15631e" height="30" width="30" y="25" x="150" />
  <rect fill="#15631e" height="30" width="30" y="25" x="190" />

  <text font-family="Sans-serif" font-size="20px" y="45" x="40" fill="#ffffff">Т</text>
  <text font-family="Sans-serif" font-size="20px" y="45" x="80" fill="#ffffff">е</text>
  <text font-family="Sans-serif" font-size="20px" y="45" x="120" fill="#ffffff">к</text>
  <text font-family="Sans-serif" font-size="20px" y="45" x="160" fill="#ffffff">с</text>
  <text font-family="Sans-serif" font-size="20px" y="45" x="200" fill="#ffffff">т</text>

  <rect fill="#666666" height="30" width="30" y="100" x="30" />
  <rect fill="#666666" height="30" width="30" y="100" x="70" />
  <rect fill="#666666" height="30" width="30" y="100" x="110" />
  <rect fill="#666666" height="30" width="30" y="100" x="150" />
  <rect fill="#666666" height="30" width="30" y="100" x="190" />

  <text font-family="Sans-serif" font-size="20px" y="122" x="35" fill="#ffffff">…</text>
  <text font-family="Sans-serif" font-size="20px" y="122" x="78" fill="#ffffff">К</text>
  <text font-family="Sans-serif" font-size="20px" y="122" x="119" fill="#ffffff">л</text>
  <text font-family="Sans-serif" font-size="20px" y="122" x="158" fill="#ffffff">ю</text>
  <text font-family="Sans-serif" font-size="20px" y="122" x="199" fill="#ffffff">ч</text>

  <rect fill="#666666" height="30" width="30" y="25" x="290" />

  <text font-family="Sans-serif" font-size="20px" y="47" x="296" fill="#ffffff">⊕</text>

  <rect fill="#ff7a1c" height="30" width="30" y="25" x="390" />
  <rect fill="#ff7a1c" height="30" width="30" y="25" x="430" />
  <rect fill="#ff7a1c" height="30" width="30" y="25" x="470" />
  <rect fill="#ff7a1c" height="30" width="30" y="25" x="510" />
  <rect fill="#ff7a1c" height="30" width="30" y="25" x="550" />

  <text font-family="Sans-serif" font-size="20px" y="45" x="395" fill="#ffffff">Ш</text>
  <text font-family="Sans-serif" font-size="20px" y="45" x="438" fill="#ffffff">и</text>
  <text font-family="Sans-serif" font-size="20px" y="45" x="477" fill="#ffffff">ф</text>
  <text font-family="Sans-serif" font-size="20px" y="45" x="518" fill="#ffffff">р</text>
  <text font-family="Sans-serif" font-size="20px" y="45" x="555" fill="#ffffff">…</text>

  <path d="m230,30l30,0l0,-10l20,20l-20,20l0,-10l-30,0z" fill="#1c6fff" stroke="#000000" stroke-width="1"/>
  <path d="m330,30l30,0l0,-10l20,20l-20,20l0,-10l-30,0z" fill="#1c6fff" stroke="#000000" stroke-width="1"/>
  <path d="m230,105l65,0l0,-20l-10,0l20,-20l20,20l-10,0l0,40l-85,0z" fill="#09a089" stroke="#000000" stroke-width="1"/>

 </g>
</svg>
